# xmcd
# Track frame offsets:
# 155
# 17590
# 32745
# 53895
# 69735
# 84640
# 97560
# 113900
# 130825
# 148900
# 169025
#
# Disc length: 2528 seconds
# Revision: 0
# Processed by: cddbd v1.4PL0 Copyright (c) Steve Scherf et al.
# Submitted via: VisiTrax 2.9.5.181 - For more info visit www.synapsa.com
#
DISCID=8e09de0b
DTITLE=Tom Maxwell - Rodeo Wind
DYEAR=2003
DGENRE=Country
TTITLE0=Old Cowboys Never Say Goodbye
TTITLE1=Bandy The Rodeo Clown
TTITLE2=Rodeo Wind
TTITLE3=Gidgee After Rain
TTITLE4=His Rodeo Queen
TTITLE5=Old Rodeo Rider
TTITLE6=It Hasn't Been Easy My Way
TTITLE7=Trophy Buckles
TTITLE8=Old Drovers
TTITLE9=Circle Of Sawdust
TTITLE10=Chainsaw
EXTD=
EXTT0=
EXTT1=
EXTT2=
EXTT3=
EXTT4=
EXTT5=
EXTT6=
EXTT7=
EXTT8=
EXTT9=
EXTT10=
PLAYORDER=
